<?xml version="1.0" encoding="UTF-8" standalone="no"?>
<!DOCTYPE svg PUBLIC "-//W3C//DTD SVG 1.1//EN"
 "http://www.w3.org/Graphics/SVG/1.1/DTD/svg11.dtd">
<!-- Generated by graphviz version 5.0.0 (20220707.1540)
 -->
<!-- Pages: 1 -->
<svg width="2100pt" height="620pt"
 viewBox="0.00 0.00 2099.50 620.00" xmlns="http://www.w3.org/2000/svg" xmlns:xlink="http://www.w3.org/1999/xlink">
<g id="graph0" class="graph" transform="scale(1 1) rotate(0) translate(4 616)">
<polygon fill="white" stroke="transparent" points="-4,4 -4,-616 2095.5,-616 2095.5,4 -4,4"/>
<!-- [root] aws_acm_certificate.gitlab (expand) -->
<g id="node1" class="node">
<title>[root] aws_acm_certificate.gitlab (expand)</title>
<polygon fill="none" stroke="black" points="420.93,-252 254.08,-252 254.08,-216 420.93,-216 420.93,-252"/>
<text text-anchor="middle" x="337.5" y="-229.8" font-family="Times,serif" font-size="14.00">aws_acm_certificate.gitlab</text>
</g>
<!-- [root] data.aws_route53_zone.gitlab (expand) -->
<g id="node26" class="node">
<title>[root] data.aws_route53_zone.gitlab (expand)</title>
<polygon fill="none" stroke="black" points="429.17,-180 245.84,-180 245.84,-144 429.17,-144 429.17,-180"/>
<text text-anchor="middle" x="337.5" y="-157.8" font-family="Times,serif" font-size="14.00">data.aws_route53_zone.gitlab</text>
</g>
<!-- [root] aws_acm_certificate.gitlab (expand)&#45;&gt;[root] data.aws_route53_zone.gitlab (expand) -->
<g id="edge1" class="edge">
<title>[root] aws_acm_certificate.gitlab (expand)&#45;&gt;[root] data.aws_route53_zone.gitlab (expand)</title>
<path fill="none" stroke="black" d="M337.5,-215.7C337.5,-207.98 337.5,-198.71 337.5,-190.11"/>
<polygon fill="black" stroke="black" points="341,-190.1 337.5,-180.1 334,-190.1 341,-190.1"/>
</g>
<!-- [root] aws_acm_certificate.shared (expand) -->
<g id="node2" class="node">
<title>[root] aws_acm_certificate.shared (expand)</title>
<polygon fill="none" stroke="black" points="1675.08,-180 1503.92,-180 1503.92,-144 1675.08,-144 1675.08,-180"/>
<text text-anchor="middle" x="1589.5" y="-157.8" font-family="Times,serif" font-size="14.00">aws_acm_certificate.shared</text>
</g>
<!-- [root] data.aws_route53_zone.shared (expand) -->
<g id="node27" class="node">
<title>[root] data.aws_route53_zone.shared (expand)</title>
<polygon fill="none" stroke="black" points="1683.33,-108 1495.68,-108 1495.68,-72 1683.33,-72 1683.33,-108"/>
<text text-anchor="middle" x="1589.5" y="-85.8" font-family="Times,serif" font-size="14.00">data.aws_route53_zone.shared</text>
</g>
<!-- [root] aws_acm_certificate.shared (expand)&#45;&gt;[root] data.aws_route53_zone.shared (expand) -->
<g id="edge2" class="edge">
<title>[root] aws_acm_certificate.shared (expand)&#45;&gt;[root] data.aws_route53_zone.shared (expand)</title>
<path fill="none" stroke="black" d="M1589.5,-143.7C1589.5,-135.98 1589.5,-126.71 1589.5,-118.11"/>
<polygon fill="black" stroke="black" points="1593,-118.1 1589.5,-108.1 1586,-118.1 1593,-118.1"/>
</g>
<!-- [root] aws_acm_certificate.vpn (expand) -->
<g id="node3" class="node">
<title>[root] aws_acm_certificate.vpn (expand)</title>
<polygon fill="none" stroke="black" points="1949.05,-252 1793.96,-252 1793.96,-216 1949.05,-216 1949.05,-252"/>
<text text-anchor="middle" x="1871.5" y="-229.8" font-family="Times,serif" font-size="14.00">aws_acm_certificate.vpn</text>
</g>
<!-- [root] data.aws_route53_zone.vpn (expand) -->
<g id="node28" class="node">
<title>[root] data.aws_route53_zone.vpn (expand)</title>
<polygon fill="none" stroke="black" points="1873.79,-180 1701.22,-180 1701.22,-144 1873.79,-144 1873.79,-180"/>
<text text-anchor="middle" x="1787.5" y="-157.8" font-family="Times,serif" font-size="14.00">data.aws_route53_zone.vpn</text>
</g>
<!-- [root] aws_acm_certificate.vpn (expand)&#45;&gt;[root] data.aws_route53_zone.vpn (expand) -->
<g id="edge3" class="edge">
<title>[root] aws_acm_certificate.vpn (expand)&#45;&gt;[root] data.aws_route53_zone.vpn (expand)</title>
<path fill="none" stroke="black" d="M1850.74,-215.7C1840.26,-206.97 1827.39,-196.24 1816,-186.75"/>
<polygon fill="black" stroke="black" points="1817.95,-183.82 1808.03,-180.1 1813.47,-189.19 1817.95,-183.82"/>
</g>
<!-- [root] var.vpn_subdomain -->
<g id="node39" class="node">
<title>[root] var.vpn_subdomain</title>
<polygon fill="none" stroke="black" points="2019.82,-180 1899.19,-180 1899.19,-144 2025.82,-144 2025.82,-174 2019.82,-180"/>
<polyline fill="none" stroke="black" points="2019.82,-180 2019.82,-174 "/>
<polyline fill="none" stroke="black" points="2025.82,-174 2019.82,-174 "/>
<text text-anchor="middle" x="1962.5" y="-157.8" font-family="Times,serif" font-size="14.00">var.vpn_subdomain</text>
</g>
<!-- [root] aws_acm_certificate.vpn (expand)&#45;&gt;[root] var.vpn_subdomain -->
<g id="edge4" class="edge">
<title>[root] aws_acm_certificate.vpn (expand)&#45;&gt;[root] var.vpn_subdomain</title>
<path fill="none" stroke="black" d="M1894,-215.7C1905.46,-206.88 1919.56,-196.03 1931.99,-186.47"/>
<polygon fill="black" stroke="black" points="1934.48,-188.98 1940.27,-180.1 1930.21,-183.43 1934.48,-188.98"/>
</g>
<!-- [root] aws_acm_certificate_validation.gitlab (expand) -->
<g id="node4" class="node">
<title>[root] aws_acm_certificate_validation.gitlab (expand)</title>
<polygon fill="none" stroke="black" points="1236.42,-396 1006.59,-396 1006.59,-360 1236.42,-360 1236.42,-396"/>
<text text-anchor="middle" x="1121.5" y="-373.8" font-family="Times,serif" font-size="14.00">aws_acm_certificate_validation.gitlab</text>
</g>
<!-- [root] aws_route53_record.gitlab_certificate_validation (expand) -->
<g id="node19" class="node">
<title>[root] aws_route53_record.gitlab_certificate_validation (expand)</title>
<polygon fill="none" stroke="black" points="782.12,-324 490.89,-324 490.89,-288 782.12,-288 782.12,-324"/>
<text text-anchor="middle" x="636.5" y="-301.8" font-family="Times,serif" font-size="14.00">aws_route53_record.gitlab_certificate_validation</text>
</g>
<!-- [root] aws_acm_certificate_validation.gitlab (expand)&#45;&gt;[root] aws_route53_record.gitlab_certificate_validation (expand) -->
<g id="edge5" class="edge">
<title>[root] aws_acm_certificate_validation.gitlab (expand)&#45;&gt;[root] aws_route53_record.gitlab_certificate_validation (expand)</title>
<path fill="none" stroke="black" d="M1006.57,-360.41C933.78,-349.91 839.56,-336.31 764.41,-325.46"/>
<polygon fill="black" stroke="black" points="764.81,-321.98 754.41,-324.02 763.81,-328.91 764.81,-321.98"/>
</g>
<!-- [root] aws_acm_certificate_validation.shared (expand) -->
<g id="node5" class="node">
<title>[root] aws_acm_certificate_validation.shared (expand)</title>
<polygon fill="none" stroke="black" points="1525.57,-324 1291.44,-324 1291.44,-288 1525.57,-288 1525.57,-324"/>
<text text-anchor="middle" x="1408.5" y="-301.8" font-family="Times,serif" font-size="14.00">aws_acm_certificate_validation.shared</text>
</g>
<!-- [root] aws_route53_record.shared_certificate_validation (expand) -->
<g id="node21" class="node">
<title>[root] aws_route53_record.shared_certificate_validation (expand)</title>
<polygon fill="none" stroke="black" points="1737.77,-252 1441.24,-252 1441.24,-216 1737.77,-216 1737.77,-252"/>
<text text-anchor="middle" x="1589.5" y="-229.8" font-family="Times,serif" font-size="14.00">aws_route53_record.shared_certificate_validation</text>
</g>
<!-- [root] aws_acm_certificate_validation.shared (expand)&#45;&gt;[root] aws_route53_record.shared_certificate_validation (expand) -->
<g id="edge6" class="edge">
<title>[root] aws_acm_certificate_validation.shared (expand)&#45;&gt;[root] aws_route53_record.shared_certificate_validation (expand)</title>
<path fill="none" stroke="black" d="M1452.78,-287.88C1477.86,-278.18 1509.4,-265.98 1535.87,-255.74"/>
<polygon fill="black" stroke="black" points="1537.31,-258.94 1545.37,-252.07 1534.78,-252.41 1537.31,-258.94"/>
</g>
<!-- [root] aws_acm_certificate_validation.vpn (expand) -->
<g id="node6" class="node">
<title>[root] aws_acm_certificate_validation.vpn (expand)</title>
<polygon fill="none" stroke="black" points="1625.53,-396 1407.48,-396 1407.48,-360 1625.53,-360 1625.53,-396"/>
<text text-anchor="middle" x="1516.5" y="-373.8" font-family="Times,serif" font-size="14.00">aws_acm_certificate_validation.vpn</text>
</g>
<!-- [root] aws_route53_record.vpn_certificate_validation (expand) -->
<g id="node23" class="node">
<title>[root] aws_route53_record.vpn_certificate_validation (expand)</title>
<polygon fill="none" stroke="black" points="1949.73,-324 1669.28,-324 1669.28,-288 1949.73,-288 1949.73,-324"/>
<text text-anchor="middle" x="1809.5" y="-301.8" font-family="Times,serif" font-size="14.00">aws_route53_record.vpn_certificate_validation</text>
</g>
<!-- [root] aws_acm_certificate_validation.vpn (expand)&#45;&gt;[root] aws_route53_record.vpn_certificate_validation (expand) -->
<g id="edge7" class="edge">
<title>[root] aws_acm_certificate_validation.vpn (expand)&#45;&gt;[root] aws_route53_record.vpn_certificate_validation (expand)</title>
<path fill="none" stroke="black" d="M1587.81,-359.97C1630.25,-349.83 1684.24,-336.93 1728.32,-326.4"/>
<polygon fill="black" stroke="black" points="1729.22,-329.78 1738.14,-324.05 1727.6,-322.97 1729.22,-329.78"/>
</g>
<!-- [root] aws_lb.main (expand) -->
<g id="node7" class="node">
<title>[root] aws_lb.main (expand)</title>
<polygon fill="none" stroke="black" points="1139.16,-324 1051.85,-324 1051.85,-288 1139.16,-288 1139.16,-324"/>
<text text-anchor="middle" x="1095.5" y="-301.8" font-family="Times,serif" font-size="14.00">aws_lb.main</text>
</g>
<!-- [root] aws_security_group.alb (expand) -->
<g id="node24" class="node">
<title>[root] aws_security_group.alb (expand)</title>
<polygon fill="none" stroke="black" points="1170.36,-252 1020.65,-252 1020.65,-216 1170.36,-216 1170.36,-252"/>
<text text-anchor="middle" x="1095.5" y="-229.8" font-family="Times,serif" font-size="14.00">aws_security_group.alb</text>
</g>
<!-- [root] aws_lb.main (expand)&#45;&gt;[root] aws_security_group.alb (expand) -->
<g id="edge8" class="edge">
<title>[root] aws_lb.main (expand)&#45;&gt;[root] aws_security_group.alb (expand)</title>
<path fill="none" stroke="black" d="M1095.5,-287.7C1095.5,-279.98 1095.5,-270.71 1095.5,-262.11"/>
<polygon fill="black" stroke="black" points="1099,-262.1 1095.5,-252.1 1092,-262.1 1099,-262.1"/>
</g>
<!-- [root] data.aws_subnet.private_networking_1 (expand) -->
<g id="node29" class="node">
<title>[root] data.aws_subnet.private_networking_1 (expand)</title>
<polygon fill="none" stroke="black" points="1423.28,-252 1187.73,-252 1187.73,-216 1423.28,-216 1423.28,-252"/>
<text text-anchor="middle" x="1305.5" y="-229.8" font-family="Times,serif" font-size="14.00">data.aws_subnet.private_networking_1</text>
</g>
<!-- [root] aws_lb.main (expand)&#45;&gt;[root] data.aws_subnet.private_networking_1 (expand) -->
<g id="edge9" class="edge">
<title>[root] aws_lb.main (expand)&#45;&gt;[root] data.aws_subnet.private_networking_1 (expand)</title>
<path fill="none" stroke="black" d="M1139.27,-290.41C1169.8,-280.24 1210.93,-266.52 1244.65,-255.29"/>
<polygon fill="black" stroke="black" points="1246.01,-258.52 1254.39,-252.04 1243.8,-251.88 1246.01,-258.52"/>
</g>
<!-- [root] data.aws_subnet.private_networking_2 (expand) -->
<g id="node30" class="node">
<title>[root] data.aws_subnet.private_networking_2 (expand)</title>
<polygon fill="none" stroke="black" points="750.28,-252 514.73,-252 514.73,-216 750.28,-216 750.28,-252"/>
<text text-anchor="middle" x="632.5" y="-229.8" font-family="Times,serif" font-size="14.00">data.aws_subnet.private_networking_2</text>
</g>
<!-- [root] aws_lb.main (expand)&#45;&gt;[root] data.aws_subnet.private_networking_2 (expand) -->
<g id="edge10" class="edge">
<title>[root] aws_lb.main (expand)&#45;&gt;[root] data.aws_subnet.private_networking_2 (expand)</title>
<path fill="none" stroke="black" d="M1051.7,-293.11C1044,-291.24 1036.05,-289.45 1028.5,-288 912.77,-265.68 880.19,-267.95 760.16,-252.21"/>
<polygon fill="black" stroke="black" points="760.58,-248.73 750.21,-250.89 759.66,-255.67 760.58,-248.73"/>
</g>
<!-- [root] data.aws_subnet.private_networking_3 (expand) -->
<g id="node31" class="node">
<title>[root] data.aws_subnet.private_networking_3 (expand)</title>
<polygon fill="none" stroke="black" points="1003.28,-252 767.73,-252 767.73,-216 1003.28,-216 1003.28,-252"/>
<text text-anchor="middle" x="885.5" y="-229.8" font-family="Times,serif" font-size="14.00">data.aws_subnet.private_networking_3</text>
</g>
<!-- [root] aws_lb.main (expand)&#45;&gt;[root] data.aws_subnet.private_networking_3 (expand) -->
<g id="edge11" class="edge">
<title>[root] aws_lb.main (expand)&#45;&gt;[root] data.aws_subnet.private_networking_3 (expand)</title>
<path fill="none" stroke="black" d="M1051.74,-290.41C1021.21,-280.24 980.08,-266.52 946.36,-255.29"/>
<polygon fill="black" stroke="black" points="947.21,-251.88 936.61,-252.04 944.99,-258.52 947.21,-251.88"/>
</g>
<!-- [root] aws_lb_listener.http (expand) -->
<g id="node8" class="node">
<title>[root] aws_lb_listener.http (expand)</title>
<polygon fill="none" stroke="black" points="1192.15,-468 1062.86,-468 1062.86,-432 1192.15,-432 1192.15,-468"/>
<text text-anchor="middle" x="1127.5" y="-445.8" font-family="Times,serif" font-size="14.00">aws_lb_listener.http</text>
</g>
<!-- [root] aws_lb_listener.http (expand)&#45;&gt;[root] aws_lb.main (expand) -->
<g id="edge12" class="edge">
<title>[root] aws_lb_listener.http (expand)&#45;&gt;[root] aws_lb.main (expand)</title>
<path fill="none" stroke="black" d="M1068.32,-431.97C1038.2,-421.99 1006.14,-408.84 997.5,-396 988.58,-382.72 989.31,-373.74 997.5,-360 1007.49,-343.25 1024.81,-331.47 1042.14,-323.35"/>
<polygon fill="black" stroke="black" points="1043.94,-326.38 1051.72,-319.2 1041.16,-319.96 1043.94,-326.38"/>
</g>
<!-- [root] aws_lb_listener.https (expand) -->
<g id="node9" class="node">
<title>[root] aws_lb_listener.https (expand)</title>
<polygon fill="none" stroke="black" points="1388.6,-396 1254.41,-396 1254.41,-360 1388.6,-360 1388.6,-396"/>
<text text-anchor="middle" x="1321.5" y="-373.8" font-family="Times,serif" font-size="14.00">aws_lb_listener.https</text>
</g>
<!-- [root] aws_lb_listener.https (expand)&#45;&gt;[root] aws_acm_certificate_validation.shared (expand) -->
<g id="edge13" class="edge">
<title>[root] aws_lb_listener.https (expand)&#45;&gt;[root] aws_acm_certificate_validation.shared (expand)</title>
<path fill="none" stroke="black" d="M1343.01,-359.7C1353.97,-350.88 1367.45,-340.03 1379.33,-330.47"/>
<polygon fill="black" stroke="black" points="1381.65,-333.1 1387.25,-324.1 1377.26,-327.65 1381.65,-333.1"/>
</g>
<!-- [root] aws_lb_listener.https (expand)&#45;&gt;[root] aws_lb.main (expand) -->
<g id="edge14" class="edge">
<title>[root] aws_lb_listener.https (expand)&#45;&gt;[root] aws_lb.main (expand)</title>
<path fill="none" stroke="black" d="M1266.51,-359.97C1230.8,-348.91 1184.49,-334.56 1149.07,-323.59"/>
<polygon fill="black" stroke="black" points="1149.97,-320.21 1139.38,-320.59 1147.9,-326.89 1149.97,-320.21"/>
</g>
<!-- [root] aws_lb_target_group.vpn_https (expand) -->
<g id="node15" class="node">
<title>[root] aws_lb_target_group.vpn_https (expand)</title>
<polygon fill="none" stroke="black" points="1019.92,-324 827.08,-324 827.08,-288 1019.92,-288 1019.92,-324"/>
<text text-anchor="middle" x="923.5" y="-301.8" font-family="Times,serif" font-size="14.00">aws_lb_target_group.vpn_https</text>
</g>
<!-- [root] aws_lb_listener.https (expand)&#45;&gt;[root] aws_lb_target_group.vpn_https (expand) -->
<g id="edge15" class="edge">
<title>[root] aws_lb_listener.https (expand)&#45;&gt;[root] aws_lb_target_group.vpn_https (expand)</title>
<path fill="none" stroke="black" d="M1254,-361.69C1251.13,-361.11 1248.29,-360.54 1245.5,-360 1173.97,-346.12 1093.03,-332.81 1030.2,-323"/>
<polygon fill="black" stroke="black" points="1030.7,-319.54 1020.28,-321.46 1029.62,-326.45 1030.7,-319.54"/>
</g>
<!-- [root] aws_lb_listener_certificate.gitlab (expand) -->
<g id="node10" class="node">
<title>[root] aws_lb_listener_certificate.gitlab (expand)</title>
<polygon fill="none" stroke="black" points="1412.71,-468 1210.3,-468 1210.3,-432 1412.71,-432 1412.71,-468"/>
<text text-anchor="middle" x="1311.5" y="-445.8" font-family="Times,serif" font-size="14.00">aws_lb_listener_certificate.gitlab</text>
</g>
<!-- [root] aws_lb_listener_certificate.gitlab (expand)&#45;&gt;[root] aws_acm_certificate_validation.gitlab (expand) -->
<g id="edge16" class="edge">
<title>[root] aws_lb_listener_certificate.gitlab (expand)&#45;&gt;[root] aws_acm_certificate_validation.gitlab (expand)</title>
<path fill="none" stroke="black" d="M1265.02,-431.88C1238.59,-422.14 1205.3,-409.87 1177.44,-399.61"/>
<polygon fill="black" stroke="black" points="1178.43,-396.24 1167.83,-396.07 1176.01,-402.81 1178.43,-396.24"/>
</g>
<!-- [root] aws_lb_listener_certificate.gitlab (expand)&#45;&gt;[root] aws_lb_listener.https (expand) -->
<g id="edge17" class="edge">
<title>[root] aws_lb_listener_certificate.gitlab (expand)&#45;&gt;[root] aws_lb_listener.https (expand)</title>
<path fill="none" stroke="black" d="M1313.98,-431.7C1315.08,-423.98 1316.4,-414.71 1317.63,-406.11"/>
<polygon fill="black" stroke="black" points="1321.11,-406.5 1319.06,-396.1 1314.18,-405.51 1321.11,-406.5"/>
</g>
<!-- [root] aws_lb_listener_certificate.vpn (expand) -->
<g id="node11" class="node">
<title>[root] aws_lb_listener_certificate.vpn (expand)</title>
<polygon fill="none" stroke="black" points="1622.33,-468 1430.68,-468 1430.68,-432 1622.33,-432 1622.33,-468"/>
<text text-anchor="middle" x="1526.5" y="-445.8" font-family="Times,serif" font-size="14.00">aws_lb_listener_certificate.vpn</text>
</g>
<!-- [root] aws_lb_listener_certificate.vpn (expand)&#45;&gt;[root] aws_acm_certificate_validation.vpn (expand) -->
<g id="edge18" class="edge">
<title>[root] aws_lb_listener_certificate.vpn (expand)&#45;&gt;[root] aws_acm_certificate_validation.vpn (expand)</title>
<path fill="none" stroke="black" d="M1524.03,-431.7C1522.93,-423.98 1521.61,-414.71 1520.38,-406.11"/>
<polygon fill="black" stroke="black" points="1523.83,-405.51 1518.95,-396.1 1516.9,-406.5 1523.83,-405.51"/>
</g>
<!-- [root] aws_lb_listener_certificate.vpn (expand)&#45;&gt;[root] aws_lb_listener.https (expand) -->
<g id="edge19" class="edge">
<title>[root] aws_lb_listener_certificate.vpn (expand)&#45;&gt;[root] aws_lb_listener.https (expand)</title>
<path fill="none" stroke="black" d="M1476.62,-431.97C1447.85,-422.14 1411.5,-409.73 1381.21,-399.39"/>
<polygon fill="black" stroke="black" points="1382.21,-396.03 1371.61,-396.11 1379.95,-402.65 1382.21,-396.03"/>
</g>
<!-- [root] aws_lb_listener_rule.gitlab (expand) -->
<g id="node12" class="node">
<title>[root] aws_lb_listener_rule.gitlab (expand)</title>
<polygon fill="none" stroke="black" points="475.52,-468 307.49,-468 307.49,-432 475.52,-432 475.52,-468"/>
<text text-anchor="middle" x="391.5" y="-445.8" font-family="Times,serif" font-size="14.00">aws_lb_listener_rule.gitlab</text>
</g>
<!-- [root] aws_lb_listener_rule.gitlab (expand)&#45;&gt;[root] aws_lb_listener.https (expand) -->
<g id="edge20" class="edge">
<title>[root] aws_lb_listener_rule.gitlab (expand)&#45;&gt;[root] aws_lb_listener.https (expand)</title>
<path fill="none" stroke="black" d="M475.58,-433.11C478.59,-432.71 481.57,-432.34 484.5,-432 817.62,-393.85 908.16,-440.2 1244.06,-396.05"/>
<polygon fill="black" stroke="black" points="1244.62,-399.51 1254.07,-394.72 1243.69,-392.57 1244.62,-399.51"/>
</g>
<!-- [root] aws_lb_target_group.gitlab_https (expand) -->
<g id="node14" class="node">
<title>[root] aws_lb_target_group.gitlab_https (expand)</title>
<polygon fill="none" stroke="black" points="568.31,-396 364.7,-396 364.7,-360 568.31,-360 568.31,-396"/>
<text text-anchor="middle" x="466.5" y="-373.8" font-family="Times,serif" font-size="14.00">aws_lb_target_group.gitlab_https</text>
</g>
<!-- [root] aws_lb_listener_rule.gitlab (expand)&#45;&gt;[root] aws_lb_target_group.gitlab_https (expand) -->
<g id="edge21" class="edge">
<title>[root] aws_lb_listener_rule.gitlab (expand)&#45;&gt;[root] aws_lb_target_group.gitlab_https (expand)</title>
<path fill="none" stroke="black" d="M410.04,-431.7C419.31,-423.05 430.67,-412.45 440.76,-403.03"/>
<polygon fill="black" stroke="black" points="443.26,-405.49 448.18,-396.1 438.48,-400.37 443.26,-405.49"/>
</g>
<!-- [root] var.gitlab_hosted_zone_name -->
<g id="node34" class="node">
<title>[root] var.gitlab_hosted_zone_name</title>
<polygon fill="none" stroke="black" points="424.06,-108 246.95,-108 246.95,-72 430.06,-72 430.06,-102 424.06,-108"/>
<polyline fill="none" stroke="black" points="424.06,-108 424.06,-102 "/>
<polyline fill="none" stroke="black" points="430.06,-102 424.06,-102 "/>
<text text-anchor="middle" x="338.5" y="-85.8" font-family="Times,serif" font-size="14.00">var.gitlab_hosted_zone_name</text>
</g>
<!-- [root] aws_lb_listener_rule.gitlab (expand)&#45;&gt;[root] var.gitlab_hosted_zone_name -->
<g id="edge22" class="edge">
<title>[root] aws_lb_listener_rule.gitlab (expand)&#45;&gt;[root] var.gitlab_hosted_zone_name</title>
<path fill="none" stroke="black" d="M307.3,-438.12C253.55,-429.45 190.52,-415.52 171.5,-396 143.28,-367.03 152.5,-347.45 152.5,-307 152.5,-307 152.5,-307 152.5,-233 152.5,-171.2 218.18,-132.71 271.48,-111.64"/>
<polygon fill="black" stroke="black" points="272.83,-114.87 280.93,-108.04 270.34,-108.33 272.83,-114.87"/>
</g>
<!-- [root] aws_lb_listener_rule.vpn (expand) -->
<g id="node13" class="node">
<title>[root] aws_lb_listener_rule.vpn (expand)</title>
<polygon fill="none" stroke="black" points="2055.14,-468 1897.87,-468 1897.87,-432 2055.14,-432 2055.14,-468"/>
<text text-anchor="middle" x="1976.5" y="-445.8" font-family="Times,serif" font-size="14.00">aws_lb_listener_rule.vpn</text>
</g>
<!-- [root] aws_lb_listener_rule.vpn (expand)&#45;&gt;[root] aws_lb_listener.https (expand) -->
<g id="edge23" class="edge">
<title>[root] aws_lb_listener_rule.vpn (expand)&#45;&gt;[root] aws_lb_listener.https (expand)</title>
<path fill="none" stroke="black" d="M1897.59,-444.92C1785.95,-438.43 1575.74,-423.58 1398.5,-396 1398.4,-395.98 1398.3,-395.97 1398.2,-395.95"/>
<polygon fill="black" stroke="black" points="1399.04,-392.55 1388.6,-394.34 1397.88,-399.45 1399.04,-392.55"/>
</g>
<!-- [root] var.vpn_hosted_zone_name -->
<g id="node37" class="node">
<title>[root] var.vpn_hosted_zone_name</title>
<polygon fill="none" stroke="black" points="2015.68,-108 1849.33,-108 1849.33,-72 2021.68,-72 2021.68,-102 2015.68,-108"/>
<polyline fill="none" stroke="black" points="2015.68,-108 2015.68,-102 "/>
<polyline fill="none" stroke="black" points="2021.68,-102 2015.68,-102 "/>
<text text-anchor="middle" x="1935.5" y="-85.8" font-family="Times,serif" font-size="14.00">var.vpn_hosted_zone_name</text>
</g>
<!-- [root] aws_lb_listener_rule.vpn (expand)&#45;&gt;[root] var.vpn_hosted_zone_name -->
<g id="edge24" class="edge">
<title>[root] aws_lb_listener_rule.vpn (expand)&#45;&gt;[root] var.vpn_hosted_zone_name</title>
<path fill="none" stroke="black" d="M2004.05,-431.82C2038.07,-408.23 2091.5,-362.36 2091.5,-307 2091.5,-307 2091.5,-307 2091.5,-233 2091.5,-190.81 2087.55,-174.59 2058.5,-144 2045.4,-130.2 2028.1,-119.81 2010.63,-112.05"/>
<polygon fill="black" stroke="black" points="2011.51,-108.63 2000.94,-108.01 2008.82,-115.09 2011.51,-108.63"/>
</g>
<!-- [root] aws_lb_listener_rule.vpn (expand)&#45;&gt;[root] var.vpn_subdomain -->
<g id="edge25" class="edge">
<title>[root] aws_lb_listener_rule.vpn (expand)&#45;&gt;[root] var.vpn_subdomain</title>
<path fill="none" stroke="black" d="M1984.81,-431.79C1989.25,-421.63 1994.25,-408.38 1996.5,-396 2003.81,-355.97 2013.51,-296.22 1991.5,-216 1988.96,-206.74 1984.53,-197.32 1979.89,-189.05"/>
<polygon fill="black" stroke="black" points="1982.77,-187.05 1974.64,-180.26 1976.76,-190.64 1982.77,-187.05"/>
</g>
<!-- [root] data.aws_vpc.shared (expand) -->
<g id="node32" class="node">
<title>[root] data.aws_vpc.shared (expand)</title>
<polygon fill="none" stroke="black" points="854.35,-180 722.66,-180 722.66,-144 854.35,-144 854.35,-180"/>
<text text-anchor="middle" x="788.5" y="-157.8" font-family="Times,serif" font-size="14.00">data.aws_vpc.shared</text>
</g>
<!-- [root] aws_lb_target_group.gitlab_https (expand)&#45;&gt;[root] data.aws_vpc.shared (expand) -->
<g id="edge26" class="edge">
<title>[root] aws_lb_target_group.gitlab_https (expand)&#45;&gt;[root] data.aws_vpc.shared (expand)</title>
<path fill="none" stroke="black" d="M463.03,-359.93C457.46,-327.2 450.67,-255.35 488.5,-216 518.63,-184.67 633.75,-171.72 712.3,-166.47"/>
<polygon fill="black" stroke="black" points="712.89,-169.94 722.64,-165.81 712.44,-162.95 712.89,-169.94"/>
</g>
<!-- [root] aws_lb_target_group.vpn_https (expand)&#45;&gt;[root] data.aws_vpc.shared (expand) -->
<g id="edge27" class="edge">
<title>[root] aws_lb_target_group.vpn_https (expand)&#45;&gt;[root] data.aws_vpc.shared (expand)</title>
<path fill="none" stroke="black" d="M826.91,-292.53C814.98,-291 802.96,-289.46 791.5,-288 727.96,-279.91 547.88,-300.04 505.5,-252 444.18,-182.47 609.01,-166.72 712.28,-163.49"/>
<polygon fill="black" stroke="black" points="712.49,-166.99 722.38,-163.21 712.29,-159.99 712.49,-166.99"/>
</g>
<!-- [root] aws_lb_target_group_attachment.gitlab_https (expand) -->
<g id="node16" class="node">
<title>[root] aws_lb_target_group_attachment.gitlab_https (expand)</title>
<polygon fill="none" stroke="black" points="765.72,-468 493.29,-468 493.29,-432 765.72,-432 765.72,-468"/>
<text text-anchor="middle" x="629.5" y="-445.8" font-family="Times,serif" font-size="14.00">aws_lb_target_group_attachment.gitlab_https</text>
</g>
<!-- [root] aws_lb_target_group_attachment.gitlab_https (expand)&#45;&gt;[root] aws_lb_target_group.gitlab_https (expand) -->
<g id="edge28" class="edge">
<title>[root] aws_lb_target_group_attachment.gitlab_https (expand)&#45;&gt;[root] aws_lb_target_group.gitlab_https (expand)</title>
<path fill="none" stroke="black" d="M589.63,-431.88C567.35,-422.31 539.39,-410.3 515.75,-400.15"/>
<polygon fill="black" stroke="black" points="516.82,-396.8 506.25,-396.07 514.06,-403.23 516.82,-396.8"/>
</g>
<!-- [root] aws_lb_target_group_attachment.gitlab_https (expand)&#45;&gt;[root] aws_lb_target_group.vpn_https (expand) -->
<g id="edge29" class="edge">
<title>[root] aws_lb_target_group_attachment.gitlab_https (expand)&#45;&gt;[root] aws_lb_target_group.vpn_https (expand)</title>
<path fill="none" stroke="black" d="M670.6,-431.9C690.93,-422.59 715.37,-410.11 735.5,-396 754.56,-382.65 753.66,-372.14 773.5,-360 795.97,-346.26 822.5,-335.4 846.97,-327.19"/>
<polygon fill="black" stroke="black" points="848.16,-330.48 856.58,-324.05 845.99,-323.82 848.16,-330.48"/>
</g>
<!-- [root] var.gitlab_instance_ip -->
<g id="node35" class="node">
<title>[root] var.gitlab_instance_ip</title>
<polygon fill="none" stroke="black" points="720.52,-396 586.49,-396 586.49,-360 726.52,-360 726.52,-390 720.52,-396"/>
<polyline fill="none" stroke="black" points="720.52,-396 720.52,-390 "/>
<polyline fill="none" stroke="black" points="726.52,-390 720.52,-390 "/>
<text text-anchor="middle" x="656.5" y="-373.8" font-family="Times,serif" font-size="14.00">var.gitlab_instance_ip</text>
</g>
<!-- [root] aws_lb_target_group_attachment.gitlab_https (expand)&#45;&gt;[root] var.gitlab_instance_ip -->
<g id="edge30" class="edge">
<title>[root] aws_lb_target_group_attachment.gitlab_https (expand)&#45;&gt;[root] var.gitlab_instance_ip</title>
<path fill="none" stroke="black" d="M636.18,-431.7C639.22,-423.81 642.89,-414.3 646.26,-405.55"/>
<polygon fill="black" stroke="black" points="649.57,-406.69 649.91,-396.1 643.04,-404.17 649.57,-406.69"/>
</g>
<!-- [root] aws_lb_target_group_attachment.vpn_https (expand) -->
<g id="node17" class="node">
<title>[root] aws_lb_target_group_attachment.vpn_https (expand)</title>
<polygon fill="none" stroke="black" points="1045.34,-468 783.67,-468 783.67,-432 1045.34,-432 1045.34,-468"/>
<text text-anchor="middle" x="914.5" y="-445.8" font-family="Times,serif" font-size="14.00">aws_lb_target_group_attachment.vpn_https</text>
</g>
<!-- [root] aws_lb_target_group_attachment.vpn_https (expand)&#45;&gt;[root] aws_lb_target_group.vpn_https (expand) -->
<g id="edge31" class="edge">
<title>[root] aws_lb_target_group_attachment.vpn_https (expand)&#45;&gt;[root] aws_lb_target_group.vpn_https (expand)</title>
<path fill="none" stroke="black" d="M917.25,-431.86C918.79,-421.51 920.58,-408.03 921.5,-396 923.1,-375.33 923.57,-351.88 923.66,-334.24"/>
<polygon fill="black" stroke="black" points="927.16,-334.09 923.67,-324.09 920.16,-334.08 927.16,-334.09"/>
</g>
<!-- [root] var.vpn_instance_ip -->
<g id="node38" class="node">
<title>[root] var.vpn_instance_ip</title>
<polygon fill="none" stroke="black" points="906.14,-396 782.87,-396 782.87,-360 912.14,-360 912.14,-390 906.14,-396"/>
<polyline fill="none" stroke="black" points="906.14,-396 906.14,-390 "/>
<polyline fill="none" stroke="black" points="912.14,-390 906.14,-390 "/>
<text text-anchor="middle" x="847.5" y="-373.8" font-family="Times,serif" font-size="14.00">var.vpn_instance_ip</text>
</g>
<!-- [root] aws_lb_target_group_attachment.vpn_https (expand)&#45;&gt;[root] var.vpn_instance_ip -->
<g id="edge32" class="edge">
<title>[root] aws_lb_target_group_attachment.vpn_https (expand)&#45;&gt;[root] var.vpn_instance_ip</title>
<path fill="none" stroke="black" d="M897.94,-431.7C889.83,-423.22 879.92,-412.86 871.03,-403.58"/>
<polygon fill="black" stroke="black" points="873.32,-400.91 863.88,-396.1 868.26,-405.75 873.32,-400.91"/>
</g>
<!-- [root] aws_route53_record.gitlab (expand) -->
<g id="node18" class="node">
<title>[root] aws_route53_record.gitlab (expand)</title>
<polygon fill="none" stroke="black" points="346.18,-396 180.83,-396 180.83,-360 346.18,-360 346.18,-396"/>
<text text-anchor="middle" x="263.5" y="-373.8" font-family="Times,serif" font-size="14.00">aws_route53_record.gitlab</text>
</g>
<!-- [root] aws_route53_record.gitlab (expand)&#45;&gt;[root] aws_lb.main (expand) -->
<g id="edge33" class="edge">
<title>[root] aws_route53_record.gitlab (expand)&#45;&gt;[root] aws_lb.main (expand)</title>
<path fill="none" stroke="black" d="M346.18,-361.2C349.32,-360.77 352.44,-360.36 355.5,-360 652.96,-324.71 732.37,-369.05 1028.5,-324 1032.89,-323.33 1037.41,-322.5 1041.94,-321.57"/>
<polygon fill="black" stroke="black" points="1042.78,-324.97 1051.79,-319.39 1041.27,-318.13 1042.78,-324.97"/>
</g>
<!-- [root] aws_route53_record.gitlab (expand)&#45;&gt;[root] data.aws_route53_zone.gitlab (expand) -->
<g id="edge34" class="edge">
<title>[root] aws_route53_record.gitlab (expand)&#45;&gt;[root] data.aws_route53_zone.gitlab (expand)</title>
<path fill="none" stroke="black" d="M255.2,-359.64C241.63,-328.54 218.76,-262.27 245.5,-216 253.07,-202.9 265.24,-192.76 278.29,-185.02"/>
<polygon fill="black" stroke="black" points="280.31,-187.9 287.41,-180.03 276.96,-181.75 280.31,-187.9"/>
</g>
<!-- [root] aws_route53_record.gitlab_certificate_validation (expand)&#45;&gt;[root] aws_acm_certificate.gitlab (expand) -->
<g id="edge35" class="edge">
<title>[root] aws_route53_record.gitlab_certificate_validation (expand)&#45;&gt;[root] aws_acm_certificate.gitlab (expand)</title>
<path fill="none" stroke="black" d="M563.74,-287.97C520.34,-277.8 465.1,-264.87 420.07,-254.33"/>
<polygon fill="black" stroke="black" points="420.87,-250.92 410.33,-252.05 419.27,-257.74 420.87,-250.92"/>
</g>
<!-- [root] aws_route53_record.shared (expand) -->
<g id="node20" class="node">
<title>[root] aws_route53_record.shared (expand)</title>
<polygon fill="none" stroke="black" points="1987.83,-396 1817.18,-396 1817.18,-360 1987.83,-360 1987.83,-396"/>
<text text-anchor="middle" x="1902.5" y="-373.8" font-family="Times,serif" font-size="14.00">aws_route53_record.shared</text>
</g>
<!-- [root] aws_route53_record.shared (expand)&#45;&gt;[root] aws_lb.main (expand) -->
<g id="edge36" class="edge">
<title>[root] aws_route53_record.shared (expand)&#45;&gt;[root] aws_lb.main (expand)</title>
<path fill="none" stroke="black" d="M1817.12,-361.27C1813.88,-360.82 1810.66,-360.39 1807.5,-360 1575.38,-331.36 1515.65,-342.59 1282.5,-324 1237.65,-320.42 1186.81,-315.76 1149.47,-312.23"/>
<polygon fill="black" stroke="black" points="1149.6,-308.72 1139.31,-311.26 1148.93,-315.69 1149.6,-308.72"/>
</g>
<!-- [root] aws_route53_record.shared (expand)&#45;&gt;[root] data.aws_route53_zone.shared (expand) -->
<g id="edge37" class="edge">
<title>[root] aws_route53_record.shared (expand)&#45;&gt;[root] data.aws_route53_zone.shared (expand)</title>
<path fill="none" stroke="black" d="M1936.83,-359.95C1951.94,-351 1968.87,-338.8 1980.5,-324 2032.13,-258.35 2089.96,-206.45 2034.5,-144 2023.27,-131.34 1821.64,-111.4 1693.69,-99.93"/>
<polygon fill="black" stroke="black" points="1693.73,-96.42 1683.46,-99.01 1693.11,-103.39 1693.73,-96.42"/>
</g>
<!-- [root] aws_route53_record.shared_certificate_validation (expand)&#45;&gt;[root] aws_acm_certificate.shared (expand) -->
<g id="edge38" class="edge">
<title>[root] aws_route53_record.shared_certificate_validation (expand)&#45;&gt;[root] aws_acm_certificate.shared (expand)</title>
<path fill="none" stroke="black" d="M1589.5,-215.7C1589.5,-207.98 1589.5,-198.71 1589.5,-190.11"/>
<polygon fill="black" stroke="black" points="1593,-190.1 1589.5,-180.1 1586,-190.1 1593,-190.1"/>
</g>
<!-- [root] aws_route53_record.vpn (expand) -->
<g id="node22" class="node">
<title>[root] aws_route53_record.vpn (expand)</title>
<polygon fill="none" stroke="black" points="1798.79,-396 1644.21,-396 1644.21,-360 1798.79,-360 1798.79,-396"/>
<text text-anchor="middle" x="1721.5" y="-373.8" font-family="Times,serif" font-size="14.00">aws_route53_record.vpn</text>
</g>
<!-- [root] aws_route53_record.vpn (expand)&#45;&gt;[root] aws_lb.main (expand) -->
<g id="edge39" class="edge">
<title>[root] aws_route53_record.vpn (expand)&#45;&gt;[root] aws_lb.main (expand)</title>
<path fill="none" stroke="black" d="M1643.78,-361.43C1640.65,-360.93 1637.55,-360.45 1634.5,-360 1587.34,-353.09 1276.65,-323.87 1149.55,-312.02"/>
<polygon fill="black" stroke="black" points="1149.56,-308.51 1139.28,-311.06 1148.91,-315.48 1149.56,-308.51"/>
</g>
<!-- [root] aws_route53_record.vpn (expand)&#45;&gt;[root] data.aws_route53_zone.vpn (expand) -->
<g id="edge40" class="edge">
<title>[root] aws_route53_record.vpn (expand)&#45;&gt;[root] data.aws_route53_zone.vpn (expand)</title>
<path fill="none" stroke="black" d="M1692.46,-359.84C1680.19,-350.87 1667.2,-338.68 1660.5,-324 1653.87,-309.44 1651.64,-301.32 1660.5,-288 1683.46,-253.5 1716.69,-280.78 1746.5,-252 1763.93,-235.17 1774.66,-209.53 1780.75,-190.08"/>
<polygon fill="black" stroke="black" points="1784.16,-190.86 1783.59,-180.28 1777.44,-188.91 1784.16,-190.86"/>
</g>
<!-- [root] aws_route53_record.vpn (expand)&#45;&gt;[root] var.vpn_subdomain -->
<g id="edge41" class="edge">
<title>[root] aws_route53_record.vpn (expand)&#45;&gt;[root] var.vpn_subdomain</title>
<path fill="none" stroke="black" d="M1798.92,-360.85C1867.05,-346.47 1955.87,-327.2 1958.5,-324 1989.39,-286.41 1980.14,-225.54 1971.04,-190.4"/>
<polygon fill="black" stroke="black" points="1974.31,-189.08 1968.27,-180.38 1967.56,-190.95 1974.31,-189.08"/>
</g>
<!-- [root] aws_route53_record.vpn_certificate_validation (expand)&#45;&gt;[root] aws_acm_certificate.vpn (expand) -->
<g id="edge42" class="edge">
<title>[root] aws_route53_record.vpn_certificate_validation (expand)&#45;&gt;[root] aws_acm_certificate.vpn (expand)</title>
<path fill="none" stroke="black" d="M1824.83,-287.7C1832.26,-279.3 1841.33,-269.07 1849.48,-259.86"/>
<polygon fill="black" stroke="black" points="1852.34,-261.91 1856.35,-252.1 1847.1,-257.27 1852.34,-261.91"/>
</g>
<!-- [root] aws_security_group.alb (expand)&#45;&gt;[root] data.aws_vpc.shared (expand) -->
<g id="edge43" class="edge">
<title>[root] aws_security_group.alb (expand)&#45;&gt;[root] data.aws_vpc.shared (expand)</title>
<path fill="none" stroke="black" d="M1020.8,-215.97C973.32,-205.14 912.06,-191.17 864.36,-180.3"/>
<polygon fill="black" stroke="black" points="864.93,-176.84 854.4,-178.03 863.37,-183.66 864.93,-176.84"/>
</g>
<!-- [root] data.aws_elb_service_account.current (expand) -->
<g id="node25" class="node">
<title>[root] data.aws_elb_service_account.current (expand)</title>
<polygon fill="none" stroke="black" points="229.01,-108 0,-108 0,-72 229.01,-72 229.01,-108"/>
<text text-anchor="middle" x="114.5" y="-85.8" font-family="Times,serif" font-size="14.00">data.aws_elb_service_account.current</text>
</g>
<!-- [root] provider[&quot;registry.terraform.io/hashicorp/aws&quot;] -->
<g id="node33" class="node">
<title>[root] provider[&quot;registry.terraform.io/hashicorp/aws&quot;]</title>
<polygon fill="none" stroke="black" points="788.5,-36 513.96,-18 788.5,0 1063.05,-18 788.5,-36"/>
<text text-anchor="middle" x="788.5" y="-13.8" font-family="Times,serif" font-size="14.00">provider[&quot;registry.terraform.io/hashicorp/aws&quot;]</text>
</g>
<!-- [root] data.aws_elb_service_account.current (expand)&#45;&gt;[root] provider[&quot;registry.terraform.io/hashicorp/aws&quot;] -->
<g id="edge44" class="edge">
<title>[root] data.aws_elb_service_account.current (expand)&#45;&gt;[root] provider[&quot;registry.terraform.io/hashicorp/aws&quot;]</title>
<path fill="none" stroke="black" d="M229.06,-73.01C231.9,-72.66 234.72,-72.33 237.5,-72 383.86,-54.85 552.57,-39.23 664.35,-29.46"/>
<polygon fill="black" stroke="black" points="664.99,-32.92 674.65,-28.56 664.39,-25.95 664.99,-32.92"/>
</g>
<!-- [root] data.aws_route53_zone.gitlab (expand)&#45;&gt;[root] provider[&quot;registry.terraform.io/hashicorp/aws&quot;] -->
<g id="edge45" class="edge">
<title>[root] data.aws_route53_zone.gitlab (expand)&#45;&gt;[root] provider[&quot;registry.terraform.io/hashicorp/aws&quot;]</title>
<path fill="none" stroke="black" d="M391.91,-143.87C478.64,-116.56 647.32,-63.45 734.07,-36.14"/>
<polygon fill="black" stroke="black" points="735.24,-39.44 743.73,-33.1 733.14,-32.76 735.24,-39.44"/>
</g>
<!-- [root] data.aws_route53_zone.gitlab (expand)&#45;&gt;[root] var.gitlab_hosted_zone_name -->
<g id="edge46" class="edge">
<title>[root] data.aws_route53_zone.gitlab (expand)&#45;&gt;[root] var.gitlab_hosted_zone_name</title>
<path fill="none" stroke="black" d="M337.75,-143.7C337.86,-135.98 337.99,-126.71 338.12,-118.11"/>
<polygon fill="black" stroke="black" points="341.62,-118.15 338.26,-108.1 334.62,-118.05 341.62,-118.15"/>
</g>
<!-- [root] data.aws_route53_zone.shared (expand)&#45;&gt;[root] provider[&quot;registry.terraform.io/hashicorp/aws&quot;] -->
<g id="edge47" class="edge">
<title>[root] data.aws_route53_zone.shared (expand)&#45;&gt;[root] provider[&quot;registry.terraform.io/hashicorp/aws&quot;]</title>
<path fill="none" stroke="black" d="M1495.66,-80.8C1350.33,-68.1 1070.89,-43.68 910.22,-29.64"/>
<polygon fill="black" stroke="black" points="910.08,-26.11 899.81,-28.73 909.47,-33.08 910.08,-26.11"/>
</g>
<!-- [root] var.shared_hosted_zone_name -->
<g id="node36" class="node">
<title>[root] var.shared_hosted_zone_name</title>
<polygon fill="none" stroke="black" points="1677.71,-36 1495.29,-36 1495.29,0 1683.71,0 1683.71,-30 1677.71,-36"/>
<polyline fill="none" stroke="black" points="1677.71,-36 1677.71,-30 "/>
<polyline fill="none" stroke="black" points="1683.71,-30 1677.71,-30 "/>
<text text-anchor="middle" x="1589.5" y="-13.8" font-family="Times,serif" font-size="14.00">var.shared_hosted_zone_name</text>
</g>
<!-- [root] data.aws_route53_zone.shared (expand)&#45;&gt;[root] var.shared_hosted_zone_name -->
<g id="edge48" class="edge">
<title>[root] data.aws_route53_zone.shared (expand)&#45;&gt;[root] var.shared_hosted_zone_name</title>
<path fill="none" stroke="black" d="M1589.5,-71.7C1589.5,-63.98 1589.5,-54.71 1589.5,-46.11"/>
<polygon fill="black" stroke="black" points="1593,-46.1 1589.5,-36.1 1586,-46.1 1593,-46.1"/>
</g>
<!-- [root] data.aws_route53_zone.vpn (expand)&#45;&gt;[root] provider[&quot;registry.terraform.io/hashicorp/aws&quot;] -->
<g id="edge49" class="edge">
<title>[root] data.aws_route53_zone.vpn (expand)&#45;&gt;[root] provider[&quot;registry.terraform.io/hashicorp/aws&quot;]</title>
<path fill="none" stroke="black" d="M1701.26,-146.6C1695.59,-145.71 1689.97,-144.83 1684.5,-144 1394.02,-99.77 1049.58,-53.43 885.19,-31.68"/>
<polygon fill="black" stroke="black" points="885.48,-28.19 875.1,-30.35 884.56,-35.13 885.48,-28.19"/>
</g>
<!-- [root] data.aws_route53_zone.vpn (expand)&#45;&gt;[root] var.vpn_hosted_zone_name -->
<g id="edge50" class="edge">
<title>[root] data.aws_route53_zone.vpn (expand)&#45;&gt;[root] var.vpn_hosted_zone_name</title>
<path fill="none" stroke="black" d="M1823.71,-143.88C1843.76,-134.39 1868.88,-122.51 1890.22,-112.42"/>
<polygon fill="black" stroke="black" points="1891.87,-115.51 1899.42,-108.07 1888.88,-109.18 1891.87,-115.51"/>
</g>
<!-- [root] data.aws_subnet.private_networking_1 (expand)&#45;&gt;[root] data.aws_vpc.shared (expand) -->
<g id="edge51" class="edge">
<title>[root] data.aws_subnet.private_networking_1 (expand)&#45;&gt;[root] data.aws_vpc.shared (expand)</title>
<path fill="none" stroke="black" d="M1187.87,-217.07C1088.65,-203.64 949.58,-184.81 864.45,-173.28"/>
<polygon fill="black" stroke="black" points="864.73,-169.79 854.35,-171.91 863.79,-176.73 864.73,-169.79"/>
</g>
<!-- [root] data.aws_subnet.private_networking_2 (expand)&#45;&gt;[root] data.aws_vpc.shared (expand) -->
<g id="edge52" class="edge">
<title>[root] data.aws_subnet.private_networking_2 (expand)&#45;&gt;[root] data.aws_vpc.shared (expand)</title>
<path fill="none" stroke="black" d="M670.67,-215.88C691.9,-206.35 718.51,-194.41 741.07,-184.28"/>
<polygon fill="black" stroke="black" points="742.78,-187.36 750.47,-180.07 739.91,-180.97 742.78,-187.36"/>
</g>
<!-- [root] data.aws_subnet.private_networking_3 (expand)&#45;&gt;[root] data.aws_vpc.shared (expand) -->
<g id="edge53" class="edge">
<title>[root] data.aws_subnet.private_networking_3 (expand)&#45;&gt;[root] data.aws_vpc.shared (expand)</title>
<path fill="none" stroke="black" d="M861.53,-215.7C849.19,-206.8 833.99,-195.82 820.65,-186.2"/>
<polygon fill="black" stroke="black" points="822.36,-183.12 812.21,-180.1 818.27,-188.79 822.36,-183.12"/>
</g>
<!-- [root] data.aws_vpc.shared (expand)&#45;&gt;[root] provider[&quot;registry.terraform.io/hashicorp/aws&quot;] -->
<g id="edge54" class="edge">
<title>[root] data.aws_vpc.shared (expand)&#45;&gt;[root] provider[&quot;registry.terraform.io/hashicorp/aws&quot;]</title>
<path fill="none" stroke="black" d="M788.5,-143.87C788.5,-119.67 788.5,-75.21 788.5,-46.39"/>
<polygon fill="black" stroke="black" points="792,-46.19 788.5,-36.19 785,-46.19 792,-46.19"/>
</g>
<!-- [root] provider[&quot;registry.terraform.io/hashicorp/aws&quot;] (close) -->
<g id="node40" class="node">
<title>[root] provider[&quot;registry.terraform.io/hashicorp/aws&quot;] (close)</title>
<ellipse fill="none" stroke="black" cx="1127.5" cy="-522" rx="247.26" ry="18"/>
<text text-anchor="middle" x="1127.5" y="-517.8" font-family="Times,serif" font-size="14.00">[root] provider[&quot;registry.terraform.io/hashicorp/aws&quot;] (close)</text>
</g>
<!-- [root] provider[&quot;registry.terraform.io/hashicorp/aws&quot;] (close)&#45;&gt;[root] aws_lb_listener.http (expand) -->
<g id="edge55" class="edge">
<title>[root] provider[&quot;registry.terraform.io/hashicorp/aws&quot;] (close)&#45;&gt;[root] aws_lb_listener.http (expand)</title>
<path fill="none" stroke="black" d="M1127.5,-503.7C1127.5,-495.98 1127.5,-486.71 1127.5,-478.11"/>
<polygon fill="black" stroke="black" points="1131,-478.1 1127.5,-468.1 1124,-478.1 1131,-478.1"/>
</g>
<!-- [root] provider[&quot;registry.terraform.io/hashicorp/aws&quot;] (close)&#45;&gt;[root] aws_lb_listener_certificate.gitlab (expand) -->
<g id="edge56" class="edge">
<title>[root] provider[&quot;registry.terraform.io/hashicorp/aws&quot;] (close)&#45;&gt;[root] aws_lb_listener_certificate.gitlab (expand)</title>
<path fill="none" stroke="black" d="M1171.58,-504.23C1197.25,-494.46 1229.84,-482.07 1257.11,-471.69"/>
<polygon fill="black" stroke="black" points="1258.41,-474.94 1266.51,-468.12 1255.92,-468.4 1258.41,-474.94"/>
</g>
<!-- [root] provider[&quot;registry.terraform.io/hashicorp/aws&quot;] (close)&#45;&gt;[root] aws_lb_listener_certificate.vpn (expand) -->
<g id="edge57" class="edge">
<title>[root] provider[&quot;registry.terraform.io/hashicorp/aws&quot;] (close)&#45;&gt;[root] aws_lb_listener_certificate.vpn (expand)</title>
<path fill="none" stroke="black" d="M1217.54,-505.2C1277.76,-494.64 1357.25,-480.69 1420.52,-469.59"/>
<polygon fill="black" stroke="black" points="1421.28,-473.01 1430.52,-467.84 1420.07,-466.12 1421.28,-473.01"/>
</g>
<!-- [root] provider[&quot;registry.terraform.io/hashicorp/aws&quot;] (close)&#45;&gt;[root] aws_lb_listener_rule.gitlab (expand) -->
<g id="edge58" class="edge">
<title>[root] provider[&quot;registry.terraform.io/hashicorp/aws&quot;] (close)&#45;&gt;[root] aws_lb_listener_rule.gitlab (expand)</title>
<path fill="none" stroke="black" d="M938.47,-510.34C812.72,-502.06 643.73,-488.69 485.52,-468.06"/>
<polygon fill="black" stroke="black" points="485.97,-464.59 475.59,-466.76 485.05,-471.53 485.97,-464.59"/>
</g>
<!-- [root] provider[&quot;registry.terraform.io/hashicorp/aws&quot;] (close)&#45;&gt;[root] aws_lb_listener_rule.vpn (expand) -->
<g id="edge59" class="edge">
<title>[root] provider[&quot;registry.terraform.io/hashicorp/aws&quot;] (close)&#45;&gt;[root] aws_lb_listener_rule.vpn (expand)</title>
<path fill="none" stroke="black" d="M1308.23,-509.67C1451.19,-500.17 1655.79,-485.39 1834.5,-468 1851.65,-466.33 1869.93,-464.32 1887.48,-462.27"/>
<polygon fill="black" stroke="black" points="1888.19,-465.71 1897.71,-461.06 1887.36,-458.76 1888.19,-465.71"/>
</g>
<!-- [root] provider[&quot;registry.terraform.io/hashicorp/aws&quot;] (close)&#45;&gt;[root] aws_lb_target_group_attachment.gitlab_https (expand) -->
<g id="edge60" class="edge">
<title>[root] provider[&quot;registry.terraform.io/hashicorp/aws&quot;] (close)&#45;&gt;[root] aws_lb_target_group_attachment.gitlab_https (expand)</title>
<path fill="none" stroke="black" d="M1019.14,-505.77C943.27,-495.1 841.48,-480.8 760.97,-469.48"/>
<polygon fill="black" stroke="black" points="761.15,-465.97 750.76,-468.04 760.17,-472.9 761.15,-465.97"/>
</g>
<!-- [root] provider[&quot;registry.terraform.io/hashicorp/aws&quot;] (close)&#45;&gt;[root] aws_lb_target_group_attachment.vpn_https (expand) -->
<g id="edge61" class="edge">
<title>[root] provider[&quot;registry.terraform.io/hashicorp/aws&quot;] (close)&#45;&gt;[root] aws_lb_target_group_attachment.vpn_https (expand)</title>
<path fill="none" stroke="black" d="M1076.76,-504.32C1046.54,-494.39 1007.98,-481.72 976.03,-471.22"/>
<polygon fill="black" stroke="black" points="976.94,-467.83 966.34,-468.04 974.75,-474.48 976.94,-467.83"/>
</g>
<!-- [root] provider[&quot;registry.terraform.io/hashicorp/aws&quot;] (close)&#45;&gt;[root] aws_route53_record.gitlab (expand) -->
<g id="edge62" class="edge">
<title>[root] provider[&quot;registry.terraform.io/hashicorp/aws&quot;] (close)&#45;&gt;[root] aws_route53_record.gitlab (expand)</title>
<path fill="none" stroke="black" d="M884.6,-518.56C657.05,-514.18 345.1,-501.97 298.5,-468 278.85,-453.67 270.23,-426.61 266.45,-406.07"/>
<polygon fill="black" stroke="black" points="269.88,-405.36 264.88,-396.02 262.97,-406.44 269.88,-405.36"/>
</g>
<!-- [root] provider[&quot;registry.terraform.io/hashicorp/aws&quot;] (close)&#45;&gt;[root] aws_route53_record.shared (expand) -->
<g id="edge63" class="edge">
<title>[root] provider[&quot;registry.terraform.io/hashicorp/aws&quot;] (close)&#45;&gt;[root] aws_route53_record.shared (expand)</title>
<path fill="none" stroke="black" d="M1342.59,-513.07C1442.68,-506.04 1562.73,-492.83 1668.5,-468 1736.4,-452.06 1811.1,-421.14 1857.41,-400.28"/>
<polygon fill="black" stroke="black" points="1858.91,-403.44 1866.57,-396.12 1856.02,-397.07 1858.91,-403.44"/>
</g>
<!-- [root] provider[&quot;registry.terraform.io/hashicorp/aws&quot;] (close)&#45;&gt;[root] aws_route53_record.vpn (expand) -->
<g id="edge64" class="edge">
<title>[root] provider[&quot;registry.terraform.io/hashicorp/aws&quot;] (close)&#45;&gt;[root] aws_route53_record.vpn (expand)</title>
<path fill="none" stroke="black" d="M1339.35,-512.7C1453.13,-505.51 1580.32,-492.24 1631.5,-468 1661.53,-453.78 1687.48,-425.32 1703.69,-404.4"/>
<polygon fill="black" stroke="black" points="1706.62,-406.33 1709.83,-396.23 1701.02,-402.12 1706.62,-406.33"/>
</g>
<!-- [root] provider[&quot;registry.terraform.io/hashicorp/aws&quot;] (close)&#45;&gt;[root] data.aws_elb_service_account.current (expand) -->
<g id="edge65" class="edge">
<title>[root] provider[&quot;registry.terraform.io/hashicorp/aws&quot;] (close)&#45;&gt;[root] data.aws_elb_service_account.current (expand)</title>
<path fill="none" stroke="black" d="M885.55,-518.22C673.2,-513.56 381.43,-501.11 270.5,-468 194.02,-445.17 114.5,-458.82 114.5,-379 114.5,-379 114.5,-379 114.5,-233 114.5,-193 114.5,-146.65 114.5,-118.08"/>
<polygon fill="black" stroke="black" points="118,-118.05 114.5,-108.05 111,-118.05 118,-118.05"/>
</g>
<!-- [root] root -->
<g id="node41" class="node">
<title>[root] root</title>
<ellipse fill="none" stroke="black" cx="1127.5" cy="-594" rx="50.99" ry="18"/>
<text text-anchor="middle" x="1127.5" y="-589.8" font-family="Times,serif" font-size="14.00">[root] root</text>
</g>
<!-- [root] root&#45;&gt;[root] provider[&quot;registry.terraform.io/hashicorp/aws&quot;] (close) -->
<g id="edge66" class="edge">
<title>[root] root&#45;&gt;[root] provider[&quot;registry.terraform.io/hashicorp/aws&quot;] (close)</title>
<path fill="none" stroke="black" d="M1127.5,-575.7C1127.5,-567.98 1127.5,-558.71 1127.5,-550.11"/>
<polygon fill="black" stroke="black" points="1131,-550.1 1127.5,-540.1 1124,-550.1 1131,-550.1"/>
</g>
</g>
</svg>
